<?xml version="1.0" encoding="UTF-8" standalone="no"?> <!-- Created with Vectornator for iOS (http://vectornator.io/) --><!DOCTYPE svg PUBLIC "-//W3C//DTD SVG 1.1//EN" "http://www.w3.org/Graphics/SVG/1.1/DTD/svg11.dtd">
<svg xml:space="preserve" viewBox="0 0 2501.21 816.761" style="fill-rule:nonzero;clip-rule:evenodd;stroke-linecap:round;stroke-linejoin:round;" xmlns:vectornator="http://vectornator.io" xmlns:xlink="http://www.w3.org/1999/xlink" version="1.1" height="100%" width="100%" xmlns="http://www.w3.org/2000/svg">
<metadata>
<vectornator:setting value="false" key="WDDisplayWhiteBackground"/>
<vectornator:setting value="false" key="VNPencilOnly"/>
<vectornator:setting key="WDSnapToGrid" value="false"/>
<vectornator:setting value="false" key="WDOutlineMode"/>
<vectornator:setting key="VNDimensionsVisible" value="true"/>
<vectornator:setting key="UndoHistoryDisabled" value="false"/>
<vectornator:setting value="Points" key="WDUnits"/>
<vectornator:setting value="true" key="WDRulersVisible"/>
<vectornator:setting key="IsTimeLapseWatermarkDisabled" value="false"/>
<vectornator:setting key="WDGuidesVisible" value="true"/>
<vectornator:setting key="WDCMYKEnabledKey" value="false"/>
<vectornator:setting key="WDDynamicGuides" value="false"/>
<vectornator:setting key="WDIsolateActiveLayer" value="false"/>
<vectornator:setting key="WDSnapToEdges" value="false"/>
<vectornator:setting key="VNSnapToGuides" value="true"/>
<vectornator:setting value="false" key="WDSnapToPoints"/>
</metadata>
<defs/>
<g vectornator:layerName="Untitled" id="Untitled">
<path fill="#f8ebe1" opacity="1" d="M222.333+498.979C242.63+505.193+264.279+504.578+285.505+504.784C339.755+505.311+393.946+511.588+446.879+523.477C468.494+528.332+490.828+534.614+507.111+549.635C533.965+574.409+536.754+617.969+521.36+651.104C505.967+684.239+476.001+708.362+444.434+726.758C371.116+769.483+283.542+787.239+199.373+776.444C128.905+767.407+56.0458+733.961+24.5479+670.28C5.49947+631.769+3.83599+587.28+2.81641+544.328C0.257783+436.539-0.557619+328.71+0.370629+220.895C0.628389+190.957+1.05242+160.743+7.81262+131.577C14.5728+102.411+28.253+73.9917+51.0834+54.623C77.0718+32.5752+111.894+24.4136+145.576+19.217C220.243+7.69725+296.62+7.32949+371.394+18.1297C408.086+23.4294+445.87+32.0816+474.776+55.2937C503.683+78.5058+520.903+119.946+505.984+153.884C492.842+183.779+459.823+199.502+428.232+207.775C357.912+226.191+283.323+220.166+212.09+234.654C249.233+249.408+286.377+264.162+323.521+278.916C357.373+292.362+394.885+309.449+407.138+343.751C420.608+381.46+394.976+424.341+359.613+443.126C324.25+461.911+282.22+462.225+242.232+460.128C233.417+459.666+224.241+459.167+216.108+462.597C207.975+466.027+201.305+474.71+203.285+483.312C205.219+491.716+214.087+496.455+222.333+498.979Z"/>
<path fill="#f8ebe1" opacity="1" d="M1898.81+153.21C1908.99+151.75+1919.33+150.928+1929.54+152.137C1954.66+155.115+1977.44+170.677+1991.69+191.583C2005.94+212.489+2012.09+238.269+2011.69+263.567C2011.47+277.448+2009.3+291.482+2003.51+304.097C1992.3+328.496+1968.45+345.238+1943.05+353.928C1917.64+362.619+1890.45+364.287+1863.65+365.882C1846.66+366.893+1829.68+367.904+1812.69+368.915C1772.76+371.291+1728.95+372.543+1697.26+348.132C1669.13+326.458+1657.73+289.761+1650.35+255.021C1638.98+201.514+1633.36+146.788+1633.61+92.087C1633.67+78.8478+1634.1+65.4008+1638.13+52.7888C1649.23+18.0143+1688.32-3.87612+1724.56+0.571712C1760.79+5.01954+1791.95+32.7028+1805.15+66.7357C1815.32+92.9391+1815.83+121.743+1816.21+149.846C1816.35+160.014+1816.49+170.182+1816.63+180.349C1842.14+166.564+1870.11+157.329+1898.81+153.21Z"/>
<path fill="#f8ebe1" opacity="1" d="M1085.56+61.8866C1109.14+70.8195+1125.67+92.0203+1139.36+113.201C1226.66+248.262+1247.03+415.543+1249.23+576.346C1249.67+608.448+1249.35+641.338+1238.24+671.459C1227.12+701.579+1203.04+728.836+1171.54+735.039C1138.88+741.471+1105.01+723.748+1084.14+697.805C1063.27+671.862+1053.26+638.947+1046.14+606.424C1039.02+573.9+1034.25+540.593+1021.92+509.669C999.709+542.511+956.17+557.712+917.203+550.404C878.235+543.095+844.679+515.558+825.321+480.958C824.566+520.172+827.894+559.555+823.576+598.538C819.258+637.52+806.28+677.207+778.129+704.516C749.978+731.826+704.238+743.272+670.187+723.81C636.143+704.352+623.215+662.338+615.246+623.944C586.688+486.358+584.292+344.249+597.258+204.329C600.638+167.854+605.308+130.596+621.873+97.9234C638.439+65.2509+669.285+37.5797+705.786+34.4915C747.299+30.9794+785.447+59.4499+809.709+93.3162C828.914+120.122+842.083+150.716+854.198+181.386C867.364+214.717+879.467+248.468+890.484+282.57C905.882+237.37+924.927+193.412+947.372+151.265C961.513+124.712+977.53+98.2585+1001.11+79.58C1024.7+60.9015+1057.42+51.2309+1085.56+61.8866Z"/>
<path opacity="1" d="M2272.9+642.503C2257.4+634.451+2237.59+643.073+2226.77+656.787C2215.95+670.5+2211.64+688.051+2206.28+704.673C2196.03+736.462+2180.37+767.473+2155.23+789.468C2130.09+811.463+2094.22+823.075+2062.3+813.22C2041.11+806.675+2023.23+791.207+2011.76+772.22C1990.34+736.749+1991.2+692.561+1994.17+651.23C2004.09+513.523+2030.23+376.992+2071.88+245.361C2084.24+206.298+2098.11+167.346+2119.34+132.302C2140.57+97.2578+2169.76+66.0532+2206.64+48.2009C2259.63+22.5462+2326.41+28.1458+2374.39+62.2681C2437.36+107.042+2460.86+188.567+2474.72+264.572C2495.96+381.065+2504.48+499.872+2500.09+618.203C2498.88+650.825+2496.52+684.155+2483.68+714.167C2470.83+744.178+2445.56+770.707+2413.47+776.706C2387.01+781.654+2359.06+771.84+2338.7+754.221C2318.35+736.603+2305.03+711.914+2297.37+686.105C2292.48+669.641+2288.14+650.422+2272.9+642.503M2340.07+301.297C2321.99+289.035+2297.74+288.169+2277.21+295.616C2267.65+299.083+2258.58+304.315+2251.7+311.804C2244.94+319.169+2240.5+328.525+2238.4+338.302C2232.85+364.094+2244.75+392.756+2266.97+406.971C2289.2+421.186+2320.26+419.944+2341.23+403.937C2362.2+387.929+2371.58+358.234+2363.55+333.107C2359.46+320.321+2351.18+308.832+2340.07+301.297" fill="#f8ebe1"/>
<path fill="#f8ebe1" d="M1313.49+651.866C1297.44+554.925+1283.7+457.602+1272.29+360.008C1262.43+275.753+1254.36+189.941+1269.8+106.53C1273.49+86.6138+1278.76+66.3901+1290.69+50.0224C1315.18+16.4298+1364.57+7.14834+1403.23+22.4189C1441.9+37.6894+1469.97+73.1531+1484.81+111.986C1499.64+150.819+1502.79+193.058+1503.73+234.619C1504.92+287.171+1502.83+339.796+1497.47+392.088C1496.9+397.744+1502.17+402.618+1507.74+403.781C1513.3+404.944+1519.03+403.415+1524.56+402.102C1586.59+387.378+1656.15+401.024+1703.97+443.185C1751.8+485.345+1774+556.549+1752.76+616.662C1730.08+680.86+1666.69+720.936+1604.52+748.705C1553.49+771.5+1499.09+789.678+1443.2+789.447C1415.96+789.334+1387.63+784.347+1365.76+768.123C1330.73+742.138+1320.62+694.899+1313.49+651.866M1451.19+595.465C1447.28+620.285+1461.87+646.847+1484.92+656.854C1507.97+666.86+1537.34+659.386+1552.8+639.58C1568.26+619.774+1568.38+589.468+1553.08+569.538C1550.78+566.538+1548.15+563.745+1545.02+561.624C1541.38+559.159+1537.17+557.671+1532.92+556.551C1513.83+551.523+1492.94+553.694+1475.3+562.54C1471.08+564.655+1467.02+567.159+1463.58+570.393C1456.67+576.9+1452.67+586.088+1451.19+595.465Z" opacity="1"/>
</g>
</svg>
