<?xml version="1.0" encoding="UTF-8" standalone="no"?> <!-- Created with Vectornator for iOS (http://vectornator.io/) --><!DOCTYPE svg PUBLIC "-//W3C//DTD SVG 1.1//EN" "http://www.w3.org/Graphics/SVG/1.1/DTD/svg11.dtd">
<svg xml:space="preserve" xmlns="http://www.w3.org/2000/svg" width="100%" xmlns:vectornator="http://vectornator.io" height="100%" version="1.1" xmlns:xlink="http://www.w3.org/1999/xlink" viewBox="0 0 1413.87 1448.03" style="fill-rule:nonzero;clip-rule:evenodd;stroke-linecap:round;stroke-linejoin:round;">
<metadata>
<vectornator:setting value="false" key="WDIsolateActiveLayer"/>
<vectornator:setting value="false" key="WDCMYKEnabledKey"/>
<vectornator:setting value="false" key="WDSnapToGrid"/>
<vectornator:setting key="WDDisplayWhiteBackground" value="false"/>
<vectornator:setting value="true" key="VNDimensionsVisible"/>
<vectornator:setting value="false" key="UndoHistoryDisabled"/>
<vectornator:setting key="VNPencilOnly" value="false"/>
<vectornator:setting key="WDGuidesVisible" value="true"/>
<vectornator:setting value="false" key="WDDynamicGuides"/>
<vectornator:setting key="WDSnapToPoints" value="false"/>
<vectornator:setting value="false" key="WDSnapToEdges"/>
<vectornator:setting key="VNSnapToGuides" value="true"/>
<vectornator:setting value="false" key="WDOutlineMode"/>
<vectornator:setting value="Points" key="WDUnits"/>
<vectornator:setting key="WDRulersVisible" value="true"/>
<vectornator:setting value="false" key="IsTimeLapseWatermarkDisabled"/>
</metadata>
<defs/>
<g id="Untitled" vectornator:layerName="Untitled">
<path opacity="1" d="M19.0365+335.503C6.11479+254.989-6.83396+173.071+4.11512+92.265C5.73033+80.3445+8.04825+68.0371+15.0809+58.2775C22.7471+47.6387+35.0489+41.3864+47.3026+36.7174C85.5073+22.1604+127.023+19.3317+167.835+16.9129C535.029-4.84988+903.467-5.61096+1270.75+14.6346C1291.53+15.7802+1312.91+17.142+1331.7+26.098C1367.93+43.3638+1385.99+84.2911+1396.41+123.041C1415.2+192.862+1418.89+266.702+1407.17+338.051C1404.4+354.959+1400.49+372.352+1390.09+385.969C1367.58+415.433+1324.56+416.928+1287.5+415.864C897.963+404.679+508.077+405.787+118.613+419.184C94.6105+420.009+68.4263+420.22+49.4171+405.541C28.7579+389.588+23.1727+361.275+19.0365+335.503Z" fill="#193f6a"/>
<path fill="#193f6a" opacity="1" d="M30.7929+873.237C21.0751+859.53+17.6298+842.441+15.1679+825.821C4.30127+752.458+8.14787+676.946+26.4131+605.068C29.106+594.471+32.2578+583.65+39.0134+575.052C47.1102+564.749+59.4744+558.792+71.7566+554.223C112.518+539.058+156.553+535.493+199.966+532.872C544.743+512.061+890.593+541.938+1235.92+534.833C1287.89+533.764+1350.21+537.267+1376.33+582.201C1385.75+598.417+1388.49+617.559+1390.56+636.201C1396.68+691.386+1398.56+747.042+1396.17+802.515C1394.73+835.921+1390.97+871.348+1370.46+897.759C1336.56+941.427+1272.45+943.48+1217.21+941.241C1061.59+934.934+906.027+925.483+750.274+924.65C537.953+923.514+324.471+938.337+114.046+909.998C83.0731+905.827+48.8683+898.732+30.7929+873.237Z"/>
<path fill="#193f6a" opacity="1" d="M36.721+1278.7C35.8633+1244.02+35.0055+1209.33+34.1478+1174.65C32.8842+1123.55+35.3636+1064.24+76.2061+1033.51C100.829+1014.98+133.507+1012.07+164.294+1010.73C259.432+1006.57+354.715+1010.77+449.852+1014.96C736.054+1027.58+1022.25+1040.2+1308.46+1052.82C1329.85+1053.77+1352.57+1055.15+1370.03+1067.54C1396.74+1086.5+1401.64+1123.72+1401.95+1156.47C1402.43+1207.52+1397.53+1258.62+1387.36+1308.64C1379.61+1346.74+1367.57+1386.31+1338.9+1412.56C1297.26+1450.68+1234.22+1449.8+1177.86+1446.67C845.861+1428.24+513.867+1409.82+181.872+1391.39C155.949+1389.95+129.873+1388.49+104.585+1382.61C88.711+1378.92+72.713+1373.19+60.9629+1361.89C39.563+1341.33+37.4547+1308.37+36.721+1278.7Z"/>
</g>
</svg>
